<?xml version="1.0" encoding="UTF-8"?>
<svg version="1.1" xmlns="http://www.w3.org/2000/svg" width="448" height="182">
<path d="M0 0 C147.84 0 295.68 0 448 0 C448 60.06 448 120.12 448 182 C300.16 182 152.32 182 0 182 C0 121.94 0 61.88 0 0 Z " fill="#FEFDFD" transform="translate(0,0)"/>
<path d="M0 0 C2.46875 0.109375 2.46875 0.109375 5 1 C6.40625 2.828125 6.40625 2.828125 7.5 5.25 C7.90863281 6.15363281 8.31726563 7.05726562 8.73828125 7.98828125 C9.15464844 8.98214844 9.57101563 9.97601563 10 11 C10.44730469 12.04542969 10.89460937 13.09085938 11.35546875 14.16796875 C13.87309311 20.34759218 15.67337133 26.24912619 16.640625 32.85546875 C16.8995208 35.04340735 16.8995208 35.04340735 18 37 C18.29087921 38.87199492 18.55823036 40.74768206 18.8125 42.625 C19.70106034 48.10009976 21.12447486 52.2873338 24 57 C24.37125 57.6084375 24.7425 58.216875 25.125 58.84375 C25.93289363 60.14063188 26.75376748 61.42949777 27.5859375 62.7109375 C28.67340672 64.47131586 29.68580278 66.27823335 30.6640625 68.1015625 C31.54191406 69.72191406 31.54191406 69.72191406 32.4375 71.375 C32.97246094 72.39335938 33.50742188 73.41171875 34.05859375 74.4609375 C36.4245002 77.55518135 38.26695326 78.12843072 42 79 C42.20625 78.195625 42.4125 77.39125 42.625 76.5625 C44.12115062 72.68610976 46.11947193 69.76944554 48.484375 66.3828125 C50.41346271 63.34996841 51.69992351 60.21020652 52.9453125 56.84765625 C54.26390905 54.53767044 55.56719777 53.96403574 58 53 C60.23136824 55.23136824 60.43154805 56.26678022 61.1875 59.25 C62.84729016 64.43788684 65.4661742 67.09274263 70 70 C78.95751637 74.55733289 88.11465793 74.27100733 97.94140625 74.51757812 C98.94558594 74.55173828 99.94976562 74.58589844 100.984375 74.62109375 C102.35674316 74.65867798 102.35674316 74.65867798 103.75683594 74.69702148 C106 75 106 75 108 77 C107.625 79.625 107.625 79.625 107 82 C105.6669801 82.27237185 104.33354685 82.54271996 103 82.8125 C102.08476562 82.99941406 101.16953125 83.18632813 100.2265625 83.37890625 C97.93653086 83.81972348 95.63836784 84.21919665 93.3359375 84.58984375 C86.30564925 85.74041474 79.86064818 87.2531207 73.25 89.9375 C64.79598075 93.36147264 56.18506432 94.93362111 47.24267578 96.56640625 C43.26120042 97.33617549 39.35540833 98.38268421 35.43359375 99.40625 C32.29811015 100.1712476 29.20465351 100.63583483 26 101 C26.02320313 101.84304687 26.04640625 102.68609375 26.0703125 103.5546875 C26.08835938 104.65039062 26.10640625 105.74609375 26.125 106.875 C26.14820313 107.96554688 26.17140625 109.05609375 26.1953125 110.1796875 C26 113 26 113 24 115 C20.46428571 114.46428571 20.46428571 114.46428571 19 113 C18.92794489 111.31391034 18.91613932 109.62499341 18.9375 107.9375 C18.94652344 107.01839844 18.95554688 106.09929687 18.96484375 105.15234375 C18.98224609 104.08693359 18.98224609 104.08693359 19 103 C0.75257713 106.37815266 0.75257713 106.37815266 -17.36328125 110.3828125 C-20.90998947 111.21300494 -24.48481236 111.85581882 -28.07421875 112.47265625 C-30.21935528 112.88919207 -30.21935528 112.88919207 -32 115 C-32.46162427 117.43252661 -32.46162427 117.43252661 -32.625 120.125 C-32.69976562 121.03507812 -32.77453125 121.94515625 -32.8515625 122.8828125 C-32.92503906 123.93082031 -32.92503906 123.93082031 -33 125 C-31.74268066 124.85900879 -30.48536133 124.71801758 -29.18994141 124.57275391 C-23.33556999 123.91796855 -17.48043273 123.27022014 -11.625 122.625 C-10.5694693 122.50851105 -9.5139386 122.39202209 -8.42642212 122.27200317 C3.47784032 120.9633822 15.36034971 119.71607317 27.3125 118.9375 C35.28485098 118.41617178 43.01129697 117.40246806 50.875 116 C63.06737204 113.83462837 75.24278662 113.16299948 87.59130859 112.59570312 C88.33819443 112.56135666 89.08508026 112.52701019 89.854599 112.49162292 C91.88844901 112.40073793 93.92261183 112.31693065 95.95678711 112.23364258 C98.94938059 112.08842891 101.91104445 111.8128436 104.88989258 111.49291992 C109.84247144 110.97780166 114.75799783 110.80049896 119.734375 110.71875 C120.61603333 110.70034058 121.49769165 110.68193115 122.40606689 110.66296387 C126.13046624 110.5852123 129.85501536 110.51652517 133.57958984 110.44775391 C136.31876918 110.39581956 139.0578065 110.33869232 141.796875 110.28125 C142.63136169 110.26767456 143.46584839 110.25409912 144.32562256 110.2401123 C148.66286416 110.14811122 152.7169348 109.73189133 157 109 C159.67917415 108.86546048 162.33917273 108.76908687 165.01953125 108.71875 C165.78785782 108.70065781 166.55618439 108.68256561 167.34779358 108.66392517 C168.98855602 108.62556304 170.62936199 108.58902598 172.27020264 108.5541687 C176.54363253 108.46311478 180.81672415 108.35838294 185.08984375 108.25390625 C186.3606076 108.223218 186.3606076 108.223218 187.65704346 108.19190979 C198.44305783 107.92497633 209.22168231 107.48370228 220 107 C220 109.31 220 111.62 220 114 C218.71649658 114.02505615 217.43299316 114.0501123 216.1105957 114.07592773 C211.24041689 114.17178778 206.3703234 114.27153352 201.50024414 114.37231445 C199.41269967 114.41500224 197.32513479 114.45670639 195.23754883 114.49731445 C184.29270052 114.71088533 173.35404825 114.97483659 162.41796875 115.47265625 C161.56898514 115.50975204 160.72000153 115.54684784 159.84529114 115.58506775 C156.32280419 115.75707332 152.90711037 116.0134018 149.41259766 116.51757812 C145.59306665 117.05752613 141.82969681 117.1899631 137.98046875 117.24609375 C136.40298916 117.27738654 134.82551541 117.30897486 133.24804688 117.34082031 C132.42425537 117.35616821 131.60046387 117.37151611 130.75170898 117.3873291 C102.90964924 117.93208234 75.52433114 119.44088451 47.91870117 123.17822266 C37.92670843 124.52781015 27.97365581 125.61921587 17.91235352 126.32983398 C9.87956666 126.90151662 1.88129897 127.69687031 -6.125 128.5625 C-7.89653442 128.75320068 -7.89653442 128.75320068 -9.70385742 128.94775391 C-14.11685647 129.43101075 -18.51173124 129.92668637 -22.90234375 130.5859375 C-26.12000714 131.01604131 -29.19338305 131.09895075 -32.4375 131.0625 C-33.48808594 131.05347656 -34.53867188 131.04445312 -35.62109375 131.03515625 C-36.40613281 131.02355469 -37.19117188 131.01195312 -38 131 C-38.33 132.65 -38.66 134.3 -39 136 C-40.9375 135.6875 -40.9375 135.6875 -43 135 C-43.33 134.01 -43.66 133.02 -44 132 C-45.27786377 132.13631836 -45.27786377 132.13631836 -46.58154297 132.27539062 C-63.39794806 134.0249966 -80.08283011 135.30303905 -97 135.25 C-97.74441345 135.24895264 -98.4888269 135.24790527 -99.25579834 135.24682617 C-111.58017703 135.20991148 -111.58017703 135.20991148 -114 134 C-114.09796875 134.74121094 -114.1959375 135.48242188 -114.296875 136.24609375 C-115.63228875 145.65155093 -117.72619965 154.78338209 -120 164 C-121.65 164 -123.3 164 -125 164 C-124.39781347 157.72095084 -123.38598907 151.7111034 -122 145.5625 C-120.57183227 139.03709725 -119.43799946 132.67949176 -119 126 C-109.67990206 121.47628225 -101.01159777 118.21282676 -90.765625 116.60546875 C-87.46388336 116.07458705 -84.3016155 115.38093961 -81.0625 114.5625 C-73.48696696 112.75426975 -65.80204993 111.6266478 -58.10766602 110.44555664 C-47.36641718 109.74333285 -47.36641718 109.74333285 -38 106 C-37.814375 104.14375 -37.814375 104.14375 -37.625 102.25 C-37.21394404 98.46289429 -35.97334611 96.26031097 -34 93 C-33.26558669 88.27877158 -34.64106062 85.57530084 -36.84375 81.453125 C-41.06772671 72.49144468 -43.05484139 62.8740071 -42 53 C-41 52 -41 52 -37.4375 51.9375 C-36.303125 51.958125 -35.16875 51.97875 -34 52 C-33.98582031 52.62003906 -33.97164063 53.24007812 -33.95703125 53.87890625 C-33.49275169 62.49944835 -30.93774216 69.96728066 -28 78 C-27.61328125 77.02160156 -27.2265625 76.04320313 -26.828125 75.03515625 C-22.10268676 63.12412894 -22.10268676 63.12412894 -20 58.5 C-14.91091735 47.11819275 -11.11187713 36.16263276 -8.2265625 24.046875 C-7.04853757 19.11782078 -5.72476751 14.2417461 -4.3125 9.375 C-4.11003662 8.65844238 -3.90757324 7.94188477 -3.69897461 7.20361328 C-2.24007678 2.24007678 -2.24007678 2.24007678 0 0 Z " fill="#0A0A0A" transform="translate(198,8)"/>
<path d="M0 0 C0.66 0 1.32 0 2 0 C2.40992188 1.03640625 2.81984375 2.0728125 3.2421875 3.140625 C3.7863659 4.51045339 4.33064187 5.88024302 4.875 7.25 C5.14441406 7.93191406 5.41382813 8.61382812 5.69140625 9.31640625 C6.77191402 12.03085259 7.84571555 14.70353183 9.1953125 17.296875 C10 19 10 19 10 22 C13.01607965 21.74866003 14.43255261 21.52985117 17 20 C19.31802895 17.0009443 21.26665865 13.90948014 23.203125 10.65234375 C25 8 25 8 28 7 C30.33447255 15.67089803 30.19865739 24.10456358 30 33 C26.89104983 34.72821188 24.00772005 35.55290551 20.52734375 36.25390625 C19.46193359 36.46853516 18.39652344 36.68316406 17.29882812 36.90429688 C15.6349707 37.23010742 15.6349707 37.23010742 13.9375 37.5625 C12.85533203 37.78357422 11.77316406 38.00464844 10.65820312 38.23242188 C4.54816451 39.4456329 -1.4752334 40.34828482 -7.68847656 40.81201172 C-10.49245762 41.04004989 -13.23678098 41.47722883 -16 42 C-14.47314145 34.87466012 -12.02843268 28.79865251 -8.62988281 22.35742188 C-6.0202319 17.3045165 -4.33112782 12.21069916 -2.82421875 6.7421875 C-2.09143773 4.30421462 -1.21943525 2.22586871 0 0 Z " fill="#F9F9F9" transform="translate(186,72)"/>
<path d="M0 0 C7.96444087 6.82990514 9.07267214 22.04188166 10.4921875 31.83203125 C10.91762414 34.48610137 11.46189108 37.02393192 12.125 39.625 C13.25336535 44.81168781 14.23714244 49.75687251 13 55 C10.40189973 58.79067089 7.28861504 61.8136217 4 65 C3.17435547 66.13115234 3.17435547 66.13115234 2.33203125 67.28515625 C1.89246094 67.85105469 1.45289063 68.41695313 1 69 C0.34 69 -0.32 69 -1 69 C-2.52964314 66.03518636 -4.01784131 63.05129749 -5.5 60.0625 C-5.92925781 59.23169922 -6.35851562 58.40089844 -6.80078125 57.54492188 C-11.48319528 47.99428373 -10.26547163 40.66561757 -7.6875 30.625 C-7.45893311 29.70106445 -7.23036621 28.77712891 -6.99487305 27.82519531 C-5.61790727 22.29784914 -4.16905209 16.79173326 -2.625 11.30859375 C-1.61224072 7.56771417 -0.80767775 3.78987254 0 0 Z " fill="#F9F9F9" transform="translate(200,17)"/>
<path d="M0 0 C3.29500202 2.58893016 4.5104792 5.09046866 5.875 8.9375 C7.75729981 13.91530068 9.41653742 16.24992245 14 19 C17.15867937 19.73926538 18.85687167 19.65624034 21.6875 18.03125 C27.21164995 13.789492 30.52676339 7.933006 34 2 C34.6084375 2.44730469 35.216875 2.89460938 35.84375 3.35546875 C43.80457398 8.84609588 51.77980654 11.48960855 61 14 C61 14.66 61 15.32 61 16 C58.31260128 16.79201177 55.62508437 17.58361866 52.9375 18.375 C52.18533203 18.59671875 51.43316406 18.8184375 50.65820312 19.046875 C49.15558304 19.48920472 47.65257146 19.9302067 46.14916992 20.36987305 C44.19662002 20.94235189 42.24659697 21.52343149 40.296875 22.10546875 C37.29185033 22.92081312 34.38982627 23.48684553 31.3125 23.9375 C26.18864028 24.74249542 21.26566758 25.90268158 16.27734375 27.31640625 C11.5564837 28.30109101 6.80327073 28.63232379 2 29 C1.97494385 28.33468262 1.9498877 27.66936523 1.92407227 26.98388672 C1.80748864 23.94742513 1.68504649 20.91122654 1.5625 17.875 C1.52318359 16.82828125 1.48386719 15.7815625 1.44335938 14.703125 C1.23868904 9.72806158 1.00723793 4.89229851 0 0 Z " fill="#F7F7F7" transform="translate(220,74)"/>
<path d="M0 0 C2.3821875 0.0309375 2.3821875 0.0309375 4.8125 0.0625 C4.1525 4.0225 3.4925 7.9825 2.8125 12.0625 C-4.91348096 13.62548628 -12.31577707 14.45425925 -20.1875 14.6875 C-21.2894873 14.72544678 -22.39147461 14.76339355 -23.52685547 14.80249023 C-36.07800871 15.19244786 -48.63196365 15.15894409 -61.1875 15.0625 C-61.1875 14.4025 -61.1875 13.7425 -61.1875 13.0625 C-49.38620028 8.6392786 -37.58015477 6.19668756 -25.1875 4.0625 C-22.72811852 3.63234381 -20.26900839 3.20068296 -17.81005859 2.76806641 C-16.35008896 2.51273824 -14.88950153 2.26090898 -13.42822266 2.01318359 C-1.57102972 -0.02040298 -1.57102972 -0.02040298 0 0 Z " fill="#F6F6F6" transform="translate(153.1875,121.9375)"/>
<path d="M0 0 C-3.61407249 23.98043396 -3.61407249 23.98043396 -9 30 C-13.17163701 32.54933373 -17.25114936 32.23355003 -22 32 C-22.66 31.67 -23.32 31.34 -24 31 C-24 29.35 -24 27.7 -24 26 C-23.01 26.33 -22.02 26.66 -21 27 C-17.54213985 27.50007794 -17.54213985 27.50007794 -14 27 C-11.46808501 24.81501244 -11.46808501 24.81501244 -10 22 C-10 21.01 -10 20.02 -10 19 C-10.556875 19.495 -11.11375 19.99 -11.6875 20.5 C-14.45122422 22.29268598 -15.76822531 22.58006212 -19 22 C-21.25327729 20.21291801 -21.89278947 18.77397187 -22.28515625 15.94140625 C-22.48007042 10.91601047 -21.94705375 7.22411037 -19 3 C-13.25958268 -2.19371091 -7.12731527 -1.98339316 0 0 Z " fill="#FF0F0F" transform="translate(211,150)"/>
<path d="M0 0 C1.4540625 0.0309375 1.4540625 0.0309375 2.9375 0.0625 C8.14812585 23.23241628 8.14812585 23.23241628 7.9375 32.0625 C5.9575 32.0625 3.9775 32.0625 1.9375 32.0625 C1.9375 29.0925 1.9375 26.1225 1.9375 23.0625 C-2.51211181 22.9596188 -6.72050008 23.02664588 -11.0625 24.0625 C-13.34605244 26.46811315 -14.28320527 28.86520667 -15.0625 32.0625 C-17.0425 32.0625 -19.0225 32.0625 -21.0625 32.0625 C-19.59559333 28.10755535 -17.73283302 24.57061328 -15.62109375 20.921875 C-15.12948509 20.07039886 -15.12948509 20.07039886 -14.62794495 19.20172119 C-13.93949029 18.01084856 -13.2494363 16.82089922 -12.55786133 15.63183594 C-11.49634734 13.80621807 -10.44017709 11.97758877 -9.38476562 10.1484375 C-3.5522358 0.07249461 -3.5522358 0.07249461 0 0 Z " fill="#FF0E0E" transform="translate(244.0625,139.9375)"/>
<path d="M0 0 C3.4375 2 3.4375 2 6 5 C6.91244615 10.05992867 6.34537869 12.93036255 3.8125 17.375 C1.58483497 20.56631788 -0.05894311 22.23101329 -4 23 C-7.89192023 23.31770777 -10.76505395 23.31067575 -14 21 C-16.30861452 17.99880112 -16.42038886 14.74992119 -16.31640625 11.02734375 C-15.62529227 6.5990949 -13.05734298 3.85730512 -9.6875 1.125 C-6.12728167 -0.36532395 -3.83065824 -0.53763624 0 0 Z " fill="#FF1111" transform="translate(340,149)"/>
<path d="M0 0 C1.65 0 3.3 0 5 0 C4.47462276 5.0302076 3.89405214 10.01885239 3 15 C3.680625 14.319375 4.36125 13.63875 5.0625 12.9375 C8 11 8 11 11.75 11.1875 C15 12 15 12 16 13 C16.4889086 20.45585614 15.03362915 26.84598316 13 34 C11.35 34 9.7 34 8 34 C8.144375 33.11957031 8.28875 32.23914063 8.4375 31.33203125 C8.623125 30.17058594 8.80875 29.00914062 9 27.8125 C9.185625 26.66394531 9.37125 25.51539063 9.5625 24.33203125 C9.93489477 21.49584607 10.08596021 18.85280436 10 16 C7.49171177 16.33895787 5.53320837 16.62675414 3.4375 18.09375 C1.31094026 20.91375313 0.97589591 23.74415933 0.3125 27.1875 C0.06113281 28.45980469 -0.19023437 29.73210937 -0.44921875 31.04296875 C-0.63097656 32.01878906 -0.81273437 32.99460938 -1 34 C-2.98 34 -4.96 34 -7 34 C-5.64321789 26.22680917 -4.07511498 18.51738154 -2.375 10.8125 C-2.03082031 9.24145508 -2.03082031 9.24145508 -1.6796875 7.63867188 C-1.12152634 5.09206157 -0.56160856 2.54585183 0 0 Z " fill="#FF1313" transform="translate(304,138)"/>
<path d="M0 0 C1.65 0 3.3 0 5 0 C5.33 0.99 5.66 1.98 6 3 C7.0828125 2.2575 7.0828125 2.2575 8.1875 1.5 C11.198557 -0.10589707 12.65585985 -0.52802213 16 0 C17.66015625 1.23828125 17.66015625 1.23828125 19 3 C19.14453125 5.12890625 19.14453125 5.12890625 18.8125 7.5625 C18.69648438 8.43777344 18.58046875 9.31304687 18.4609375 10.21484375 C17.75152245 14.50139401 16.93006762 18.75600211 16 23 C14.35 23 12.7 23 11 23 C11.495 14.09 11.495 14.09 12 5 C7.22578524 5.48849893 7.22578524 5.48849893 5.29296875 7.640625 C3.66033569 10.6198104 3.0099452 13.42883236 2.3125 16.75 C2.06113281 17.92046875 1.80976563 19.0909375 1.55078125 20.296875 C1.27814453 21.63492188 1.27814453 21.63492188 1 23 C-0.65 23 -2.3 23 -4 23 C-3.32545897 15.1753241 -1.73123042 7.65443386 0 0 Z " fill="#FF1515" transform="translate(166,149)"/>
<path d="M0 0 C1.65 0 3.3 0 5 0 C5.3160849 1.35333438 5.62764351 2.70772601 5.9375 4.0625 C6.11152344 4.81660156 6.28554688 5.57070312 6.46484375 6.34765625 C7.11088811 9.54958413 7.56033948 12.76394014 8 16 C8.56589844 14.92878906 9.13179688 13.85757813 9.71484375 12.75390625 C10.45563367 11.3567202 11.19652429 9.95958753 11.9375 8.5625 C12.31068359 7.85544922 12.68386719 7.14839844 13.06835938 6.41992188 C15.88671875 1.11328125 15.88671875 1.11328125 17 0 C18.66617115 -0.04063832 20.33388095 -0.042721 22 0 C18.68957756 6.92722918 15.00791103 13.47016416 10.875 19.9375 C10.35035156 20.77345703 9.82570313 21.60941406 9.28515625 22.47070312 C3.47248788 31.63117416 3.47248788 31.63117416 -0.04296875 32.51171875 C-2.02864583 32.67447917 -4.01432292 32.83723958 -6 33 C-5.8125 31.125 -5.8125 31.125 -5 29 C-3.34561387 28.30341637 -1.67745682 27.63903117 0 27 C1.92954704 24.94451515 2.9504617 23.72700809 3.14453125 20.87890625 C3.03496094 20.11449219 2.92539062 19.35007813 2.8125 18.5625 C2.69648438 17.70011719 2.58046875 16.83773437 2.4609375 15.94921875 C2.30882812 14.97597656 2.15671875 14.00273437 2 13 C1.82726562 11.83082031 1.65453125 10.66164062 1.4765625 9.45703125 C1.00170505 6.30163791 0.50856026 3.15011113 0 0 Z " fill="#FF1010" transform="translate(396,149)"/>
<path d="M0 0 C1.65 0 3.3 0 5 0 C4.855625 0.79664063 4.71125 1.59328125 4.5625 2.4140625 C4.376875 3.47367188 4.19125 4.53328125 4 5.625 C3.814375 6.66914063 3.62875 7.71328125 3.4375 8.7890625 C3.01284203 11.90574865 2.92454794 14.85930812 3 18 C5.87203813 17.68950939 7.52326625 17.4958031 9.5625 15.375 C11.36610419 12.39513221 11.97288827 9.65291298 12.6875 6.25 C12.93886719 5.07953125 13.19023437 3.9090625 13.44921875 2.703125 C13.63097656 1.81109375 13.81273437 0.9190625 14 0 C15.65 0 17.3 0 19 0 C18.33742578 7.72422049 17.23535374 15.34800303 16 23 C14.35 23 12.7 23 11 23 C10.67 21.68 10.34 20.36 10 19 C9.278125 19.66 8.55625 20.32 7.8125 21 C5 23 5 23 2.375 23.4375 C0 23 0 23 -1.8125 22 C-4.81843028 16.93738058 -2.82462267 10.84264478 -1.5 5.5 C-1.00923441 3.66417314 -0.51237569 1.82991318 0 0 Z " fill="#FF1010" transform="translate(260,149)"/>
<path d="M0 0 C1.65 0 3.3 0 5 0 C4.855625 0.79664063 4.71125 1.59328125 4.5625 2.4140625 C4.376875 3.47367188 4.19125 4.53328125 4 5.625 C3.814375 6.66914063 3.62875 7.71328125 3.4375 8.7890625 C3.01284203 11.90574865 2.92454794 14.85930812 3 18 C5.87203813 17.68950939 7.52326625 17.4958031 9.5625 15.375 C11.36610419 12.39513221 11.97288827 9.65291298 12.6875 6.25 C12.93886719 5.07953125 13.19023437 3.9090625 13.44921875 2.703125 C13.63097656 1.81109375 13.81273437 0.9190625 14 0 C15.65 0 17.3 0 19 0 C18.33742578 7.72422049 17.23535374 15.34800303 16 23 C14.35 23 12.7 23 11 23 C10.67 21.68 10.34 20.36 10 19 C9.278125 19.66 8.55625 20.32 7.8125 21 C5 23 5 23 2.375 23.4375 C0 23 0 23 -1.8125 22 C-4.81843028 16.93738058 -2.82462267 10.84264478 -1.5 5.5 C-1.00923441 3.66417314 -0.51237569 1.82991318 0 0 Z " fill="#FF1010" transform="translate(127,149)"/>
<path d="M0 0 C0.93423645 3.01031744 1.04449911 3.86650268 0 7 C1.65 7 3.3 7 5 7 C5 8.32 5 9.64 5 11 C3.02 11 1.04 11 -1 11 C-1.66 15.95 -2.32 20.9 -3 26 C-1.68 26 -0.36 26 1 26 C1 26.99 1 27.98 1 29 C-2.3125 29.6875 -2.3125 29.6875 -6 30 C-7.7421875 28.78515625 -7.7421875 28.78515625 -9 27 C-9.14453125 24.984375 -9.14453125 24.984375 -8.8125 22.75 C-8.69648438 21.96238281 -8.58046875 21.17476562 -8.4609375 20.36328125 C-7.83610613 17.15969668 -6.99231418 14.10925111 -6 11 C-6.99 11 -7.98 11 -9 11 C-9 9.68 -9 8.36 -9 7 C-7.68 7 -6.36 7 -5 7 C-4.67 5.02 -4.34 3.04 -4 1 C-2.68 0.67 -1.36 0.34 0 0 Z " fill="#FF1010" transform="translate(389,142)"/>
<path d="M0 0 C1.65 0 3.3 0 5 0 C4.67 1.98 4.34 3.96 4 6 C5.65 6 7.3 6 9 6 C9 7.32 9 8.64 9 10 C7.02 10 5.04 10 3 10 C2.7834375 11.7634375 2.7834375 11.7634375 2.5625 13.5625 C2.08589824 17.38212272 1.55546456 21.19110019 1 25 C2.32 25 3.64 25 5 25 C5 25.99 5 26.98 5 28 C1.625 28.625 1.625 28.625 -2 29 C-4 27 -4 27 -4.265625 25.1171875 C-4.22824761 19.75353197 -3.49918237 15.15343941 -2 10 C-2.99 10 -3.98 10 -5 10 C-5 8.68 -5 7.36 -5 6 C-3.68 6 -2.36 6 -1 6 C-0.67 4.02 -0.34 2.04 0 0 Z " fill="#FF0D0D" transform="translate(288,143)"/>
<path d="M0 0 C0.66 0.33 1.32 0.66 2 1 C1.34 2.32 0.68 3.64 0 5 C-1.98 5 -3.96 5 -6 5 C-6.33 6.32 -6.66 7.64 -7 9 C-6.21625 9.28875 -5.4325 9.5775 -4.625 9.875 C-2 11 -2 11 0 13 C0.55928017 18.25723359 0.55928017 18.25723359 -1.23828125 20.64453125 C-3.39713959 22.30555973 -4.80347211 22.51630092 -7.5 22.75 C-8.2734375 22.82734375 -9.046875 22.9046875 -9.84375 22.984375 C-12 23 -12 23 -15 22 C-15 20.68 -15 19.36 -15 18 C-12.03 18 -9.06 18 -6 18 C-6.56584725 13.88932375 -6.56584725 13.88932375 -9.5625 12.1875 C-12 10 -12 10 -12.625 6.4375 C-12 3 -12 3 -9.9375 1.0625 C-6.43188339 -0.20548899 -3.70308882 -0.2794784 0 0 Z " fill="#FF0F0F" transform="translate(100,149)"/>
<path d="M0 0 C0.66 0.33 1.32 0.66 2 1 C2 1.99 2 2.98 2 4 C-0.64 4.33 -3.28 4.66 -6 5 C-5.95231597 6.87880872 -5.95231597 6.87880872 -5 9 C-3.989375 9.61875 -2.97875 10.2375 -1.9375 10.875 C1 13 1 13 1.5625 16.0625 C0.96068587 19.20530713 0.57584589 20.1873677 -2 22 C-4.75078884 22.91692961 -6.35948913 23.10886083 -9.1875 23.0625 C-11.0746875 23.0315625 -11.0746875 23.0315625 -13 23 C-13.33 21.35 -13.66 19.7 -14 18 C-11.03 18 -8.06 18 -5 18 C-5.62054919 13.7950659 -5.62054919 13.7950659 -9.0625 11.5625 C-12 9 -12 9 -12.6875 6.4375 C-10.89236001 0.07291275 -5.88413482 -0.55510706 0 0 Z " fill="#FF0F0F" transform="translate(118,149)"/>
<path d="M0 0 C1.65 0.99 3.3 1.98 5 3 C3.65401858 13.18341204 1.45790324 23.03713976 -1 33 C-2.65 33 -4.3 33 -6 33 C-5.33020896 25.67849106 -3.98329403 18.62089577 -2.4375 11.4375 C-2.20353516 10.33341797 -1.96957031 9.22933594 -1.72851562 8.09179688 C-1.15618938 5.39368745 -0.57993998 2.69648125 0 0 Z " fill="#FC1212" transform="translate(79,139)"/>
<path d="M0 0 C1.65 0 3.3 0 5 0 C5.33 0.66 5.66 1.32 6 2 C6.99 1.34 7.98 0.68 9 0 C10.32 0 11.64 0 13 0 C12.67 1.65 12.34 3.3 12 5 C11.071875 5.226875 10.14375 5.45375 9.1875 5.6875 C5.98273363 6.73932254 5.98273363 6.73932254 4.25 8.9375 C2.39553964 13.48092787 1.72007558 18.16278641 1 23 C-0.98 23 -2.96 23 -5 23 C-3.69951304 15.22767795 -1.99548103 7.62273755 0 0 Z " fill="#FF1414" transform="translate(353,149)"/>
<path d="M0 0 C2.75 0.9375 2.75 0.9375 3.75 1.9375 C4.1999297 5.80689539 3.84897513 7.7432155 2.0625 11.25 C-0.25 13.9375 -0.25 13.9375 -2.8125 15 C-5.25 14.9375 -5.25 14.9375 -7.0625 13.875 C-8.83643279 10.9806886 -8.77478566 9.28300857 -8.25 5.9375 C-6.26904812 2.12797714 -4.54213543 -0.08734876 0 0 Z " fill="#FFEDED" transform="translate(337.25,153.0625)"/>
<path d="M0 0 C1.65 0 3.3 0 5 0 C4.33333333 6 3.66666667 12 3 18 C3.99 18.33 4.98 18.66 6 19 C5.67 20.32 5.34 21.64 5 23 C2.125 23.125 2.125 23.125 -1 23 C-3 21 -3 21 -3.21875 17.83984375 C-2.9960061 13.92989287 -2.37197328 10.37738308 -1.5 6.5625 C-1.2215625 5.32628906 -0.943125 4.09007812 -0.65625 2.81640625 C-0.4396875 1.88699219 -0.223125 0.95757812 0 0 Z " fill="#FF1212" transform="translate(153,149)"/>
<path d="M0 0 C-0.53397348 6.30088708 -1.38158103 10.38158103 -6 15 C-8.625 14.625 -8.625 14.625 -11 14 C-11.47493725 9.15564006 -11.72418203 6.0436741 -8.875 1.9375 C-5.57683856 -0.28517401 -3.89503578 -0.45291114 0 0 Z " fill="#FFF2F2" transform="translate(205,153)"/>
<path d="M0 0 C1.65 0 3.3 0 5 0 C4.86722656 0.78503906 4.73445313 1.57007813 4.59765625 2.37890625 C3.66757357 7.91187987 2.75808113 13.44073841 2 19 C2.99 19 3.98 19 5 19 C4.67 20.32 4.34 21.64 4 23 C1.625 23.125 1.625 23.125 -1 23 C-3 21 -3 21 -3.3125 17.125 C-3.20630612 11.20710463 -1.6095451 5.66214972 0 0 Z " fill="#FF0F0F" transform="translate(370,149)"/>
<path d="M0 0 C0.66 0 1.32 0 2 0 C2.33 4.62 2.66 9.24 3 14 C0.03 14 -2.94 14 -6 14 C-4.50829734 9.0276578 -2.39542583 4.58154261 0 0 Z " fill="#FFEEEE" transform="translate(242,145)"/>
<path d="M0 0 C0.66 0.66 1.32 1.32 2 2 C2.99 1.34 3.98 0.68 5 0 C6.32 0 7.64 0 9 0 C8.67 1.65 8.34 3.3 8 5 C2.25 6.125 2.25 6.125 0 5 C0 3.35 0 1.7 0 0 Z " fill="#FF2626" transform="translate(357,149)"/>
<path d="M0 0 C-0.33 1.65 -0.66 3.3 -1 5 C-2.65 4.67 -4.3 4.34 -6 4 C-6 2.68 -6 1.36 -6 0 C-3.50907189 -1.24546405 -2.58919267 -0.7767578 0 0 Z " fill="#FF1E1E" transform="translate(377,139)"/>
<path d="M0 0 C0.66 0 1.32 0 2 0 C2 2.64 2 5.28 2 8 C1.34 7.34 0.68 6.68 0 6 C-0.99 6.66 -1.98 7.32 -3 8 C-2.690625 7.236875 -2.38125 6.47375 -2.0625 5.6875 C-1.32106407 3.81210323 -0.63771783 1.91315348 0 0 Z " fill="#FFBEBE" transform="translate(242,145)"/>
<path d="M0 0 C1.98 0 3.96 0 6 0 C5.67 1.32 5.34 2.64 5 4 C3.0625 3.6875 3.0625 3.6875 1 3 C0.67 2.01 0.34 1.02 0 0 Z " fill="#FF1A1A" transform="translate(154,140)"/>
</svg>
