<?xml version="1.0" encoding="UTF-8"?>
<svg version="1.1" xmlns="http://www.w3.org/2000/svg" width="1080" height="496">
<path d="M0 0 C4.58354776 4.36927621 6.4932863 10.43238085 8.8125 16.1875 C9.46617554 17.78259399 9.46617554 17.78259399 10.13305664 19.40991211 C13.61740087 27.94876562 16.97516761 36.53483701 20.26318359 45.15087891 C20.98641102 46.96589698 21.79154321 48.74758806 22.59765625 50.52734375 C24.08228477 54.20376369 24.83336814 57.59544194 25.5 61.5 C25.74799264 62.90116668 25.9967095 64.30220534 26.24609375 65.703125 C26.43147705 66.76563477 26.43147705 66.76563477 26.62060547 67.84960938 C27.23345814 71.3232299 27.88990597 74.78751337 28.5625 78.25 C28.90474609 80.05210937 28.90474609 80.05210937 29.25390625 81.890625 C29.83520101 84.88769094 29.83520101 84.88769094 31.0390625 86.94921875 C32.4790258 90.02231116 32.52984563 93.22457751 32.8125 96.5625 C33.49387115 103.20278477 34.65815956 109.59530047 36.3125 116.0625 C36.50110596 116.834729 36.68971191 117.60695801 36.8840332 118.40258789 C38.75849205 125.40586907 42.02499627 131.35763526 47.25 136.4375 C52.27760174 142.02732817 55.29045962 148.79958965 58.68310547 155.44482422 C61.14630734 160.22418477 63.69491931 164.95680215 66.25 169.6875 C66.7452417 170.61965332 67.2404834 171.55180664 67.75073242 172.51220703 C73.32175452 182.82926341 73.32175452 182.82926341 83 189 C85.48137775 189.49482 85.48137775 189.49482 88 189 C89.94046443 186.96934114 89.94046443 186.96934114 91.4375 184.1875 C92.03304688 183.18460938 92.62859375 182.18171875 93.2421875 181.1484375 C95.38745045 177.30603319 97.46685498 173.43111187 99.53515625 169.546875 C100.8816756 167.2057267 102.3218229 165.17220835 104 163.0625 C109.45727066 156.03786701 112.73637916 147.99738298 115.5625 139.625 C117.36319309 134.42427618 118.77262388 130.5932697 123 127 C125.625 126.4375 125.625 126.4375 128 127 C130.57131242 129.10205689 131.47704875 130.82002426 132.24609375 134.01953125 C132.44396484 134.79490234 132.64183594 135.57027344 132.84570312 136.36914062 C133.23733692 137.98608412 133.62797711 139.60326863 134.01757812 141.22070312 C135.28838095 146.19287342 136.83586387 149.85492186 140 154 C140.88558594 155.16015625 140.88558594 155.16015625 141.7890625 156.34375 C154.86233749 171.69789424 175.87116249 176.46387681 195.23822021 178.30841064 C202.7137949 178.80023783 210.19814511 178.94483044 217.6875 179.0625 C220.97049883 179.11780837 224.25252533 179.18001418 227.53486633 179.26622009 C229.54894559 179.31909781 231.56357839 179.35473827 233.57829285 179.37013245 C237.85314582 179.48183894 240.36275205 179.61769152 244.08911133 181.85327148 C246.53325223 184.59906565 246.92391638 186.34798602 247 190 C246.17869731 193.1939549 245.21476476 193.87228486 242.359375 195.5703125 C238.63728534 197.15436461 235.8442775 197.44082154 231.8125 197.6875 C205.97819397 199.93699879 177.5785999 207.34747893 153.9609375 217.875 C148.1705121 220.07505609 142.08001412 221.24665732 136.03491211 222.54394531 C133.97503101 223.00559593 131.93711405 223.52602223 129.89453125 224.05859375 C126.4260983 224.93778934 122.99428342 225.4555478 119.4375 225.875 C111.75210596 226.91889844 104.45390086 228.89950382 97 231 C91.37329433 232.53664109 85.74552303 233.88114591 80.0078125 234.93359375 C78.64970459 235.18302734 78.64970459 235.18302734 77.26416016 235.4375 C75.48152405 235.75995529 73.6974056 236.07436952 71.91162109 236.37890625 C65.03529325 237.61321952 58.57697208 239.66033471 52 242 C51.98541748 242.83249268 51.97083496 243.66498535 51.95581055 244.52270508 C51.8947137 247.61489653 51.82055444 250.70642082 51.73754883 253.7980957 C51.68798681 255.7929063 51.65348867 257.78807257 51.61914062 259.78320312 C51.58369141 261.03681641 51.54824219 262.29042969 51.51171875 263.58203125 C51.47244263 265.31803589 51.47244263 265.31803589 51.43237305 267.08911133 C51 270 51 270 49.68286133 271.8737793 C46.79169854 273.80863117 44.3545136 273.41195781 41 273 C37.60083248 270.5195264 36.17097323 267.99076079 35 264 C34.90263192 260.71189825 35.13053325 257.46579906 35.375 254.1875 C35.43171875 253.30384766 35.4884375 252.42019531 35.546875 251.50976562 C35.68767137 249.3391549 35.8424534 247.16945929 36 245 C19.97198608 247.94749916 3.95909079 250.94754869 -12 254.25 C-13.19004639 254.49572754 -14.38009277 254.74145508 -15.60620117 254.99462891 C-20.22179576 255.95818948 -24.82256052 256.92767942 -29.38671875 258.11328125 C-32.87057977 258.96823957 -36.25448909 259.50258598 -39.8125 259.9375 C-45.12945557 260.65585464 -50.08423942 261.77217017 -55.22265625 263.28125 C-58.30384713 264.07863273 -61.34919185 264.55465609 -64.5 265 C-70.80286627 265.94047753 -70.80286627 265.94047753 -77.0625 267.125 C-77.91972656 267.29257812 -78.77695312 267.46015625 -79.66015625 267.6328125 C-83.41164536 269.82483452 -84.65030942 272.96202835 -86 277 C-86.71792764 280.61383037 -87.04911341 284.2029306 -87.3125 287.875 C-87.39822266 288.82375 -87.48394531 289.7725 -87.57226562 290.75 C-88.19185301 295.52203243 -88.19185301 295.52203243 -87 300 C-77.83563928 299.83114243 -69.21763841 298.51459348 -60.25 296.6875 C-43.5559857 293.36434402 -26.68340166 292.12501488 -9.74638367 290.67828369 C-1.71525669 289.98852924 6.29873963 289.1810395 14.3125 288.3125 C15.43132568 288.19310059 16.55015137 288.07370117 17.70288086 287.95068359 C23.34247576 287.34056015 23.34247576 287.34056015 28.94628906 286.47265625 C32.02760672 285.99572701 34.94247294 285.85816129 38.05859375 285.82421875 C51.90630216 285.57387327 65.45785995 284.83556556 79.1875 283 C79.86352264 282.91027924 80.53954529 282.82055847 81.23605347 282.7281189 C88.71994704 281.82707046 88.71994704 281.82707046 96 280 C98.24808856 279.8443631 100.49873879 279.72473942 102.75 279.625 C108.06161514 279.33623439 113.09692239 278.68213316 118.3125 277.5625 C132.4276417 274.5617578 146.79393077 273.70568185 161.17089844 272.78491211 C166.57866131 272.41890379 171.85365267 271.89678749 177.1953125 270.96875 C184.67385621 269.75464595 192.09148641 269.64526 199.64981079 269.53613281 C211.07536123 269.36502197 222.42918886 269.12860863 233.78419495 267.7628479 C239.68447123 267.07966429 245.56214932 266.69980849 251.49609375 266.4609375 C252.52067688 266.41899261 253.54526001 266.37704773 254.60089111 266.33383179 C263.40423235 266.00360276 272.20720282 265.87480922 281.015625 265.7890625 C281.71307013 265.78190971 282.41051525 265.77475693 283.12909508 265.76738739 C289.61284451 265.70089282 296.0965788 265.63650807 302.58056641 265.59863281 C318.56085932 265.5004043 334.24675468 265.00866513 350.13824463 263.11907959 C361.08387447 261.81954884 371.98945377 261.26110378 383 260.875 C385.03810434 260.79612835 387.07618995 260.7167716 389.11425781 260.63696289 C405.55136741 260.01170606 421.99484661 259.61443947 438.44140625 259.34130859 C439.76981537 259.31701027 439.76981537 259.31701027 441.12506104 259.29222107 C442.77127456 259.26240522 444.41756174 259.23631863 446.06390381 259.21473694 C449.54754334 259.14970984 452.63978526 258.86083184 456 258 C458.17223189 257.86377469 460.34768548 257.77577515 462.5234375 257.71875 C463.791875 257.68136719 465.0603125 257.64398438 466.3671875 257.60546875 C467.70311224 257.56983101 469.03905002 257.53467895 470.375 257.5 C472.98708178 257.43085666 475.59907021 257.35806963 478.2109375 257.28125 C479.36899902 257.25095703 480.52706055 257.22066406 481.72021484 257.18945312 C484.9383011 257.0678242 484.9383011 257.0678242 487.82568359 256.5 C492.08161729 255.82962989 496.27573019 255.78549986 500.578125 255.71875 C501.50357117 255.70034058 502.42901733 255.68193115 503.38250732 255.66296387 C506.3382764 255.60449524 509.29410528 255.55169675 512.25 255.5 C528.74829727 255.2066297 528.74829727 255.2066297 545.234375 254.53125 C545.98003723 254.49390747 546.72569946 254.45656494 547.49395752 254.41809082 C550.54123975 254.24297717 553.08819465 253.97060178 556 253 C562.23321555 252.55477032 562.23321555 252.55477032 564.9375 254.125 C566.50437807 256.89007894 566.3043862 258.85981324 566 262 C564.3203125 264.51953125 564.3203125 264.51953125 562.125 266.8125 C561.40570312 267.58207031 560.68640625 268.35164063 559.9453125 269.14453125 C557.14461176 271.81588236 555.55389372 272.12665644 551.79206848 272.15821838 C550.46680901 272.17290161 550.46680901 272.17290161 549.11477661 272.18788147 C548.14208832 272.19363693 547.16940002 272.1993924 546.16723633 272.20532227 C545.14384659 272.21522186 544.12045685 272.22512146 543.0660553 272.23532104 C539.65473786 272.26709015 536.24340731 272.29179952 532.83203125 272.31640625 C530.44292365 272.33700801 528.05381944 272.35800525 525.66471863 272.37937927 C520.62814255 272.42344919 515.59155439 272.46432338 510.55493164 272.50268555 C504.1918431 272.55116775 497.82881402 272.60485369 491.46578598 272.66066647 C448.48181169 273.03668186 448.48181169 273.03668186 428.59765625 272.9765625 C416.32586953 272.94682872 404.08008246 273.20884461 391.81787109 273.68969727 C388.60154658 273.81340205 385.38492932 273.91968147 382.16796875 274.02539062 C370.21463565 274.45771998 358.45381147 275.4193628 346.58926392 276.93911743 C339.03978212 277.90295644 331.61464263 278.52581805 324 278.6875 C322.79126221 278.72166016 321.58252441 278.75582031 320.3371582 278.79101562 C308.3972675 279.08315951 296.45588258 279.02570232 284.51333618 278.99258423 C266.25118438 278.94450881 248.11558986 279.21285285 229.95288086 281.2668457 C219.6590064 282.36180773 209.31340366 282.48918742 198.97265625 282.7890625 C188.08001428 283.10521161 177.29871179 283.75959539 166.48168945 285.13085938 C161.44143047 285.75492885 156.39498387 286.24790229 151.3359375 286.69140625 C150.64602722 286.752677 149.95611694 286.81394775 149.24530029 286.8770752 C143.60630654 287.37717093 143.60630654 287.37717093 140.83666992 287.60565186 C133.8039337 288.18628341 126.94293575 288.92671767 120.03125 290.40234375 C110.39397479 292.43864539 100.65464552 293.57005877 90.87939453 294.73486328 C87.66415923 295.12030559 84.45131995 295.5224895 81.23828125 295.92578125 C69.26948904 297.38840238 57.38901266 298.36849147 45.33267212 298.70315552 C38.34809502 298.89715339 31.58984109 299.56518901 24.67626953 300.53808594 C20.99963367 301.00004603 17.38084139 301.22401357 13.6796875 301.390625 C1.61689039 302.02558935 -10.37333755 303.41669922 -22.375 304.75 C-23.5795282 304.88183685 -24.7840564 305.01367371 -26.02508545 305.14950562 C-39.00511663 306.57757444 -51.8508282 308.05889698 -64.625 310.8125 C-76.19966715 313.28294502 -87.55056013 313.52845922 -99.33520508 313.6887207 C-109.72435186 313.83919756 -119.97633968 314.43793754 -130.3125 315.5 C-131.59286133 315.63100098 -132.87322266 315.76200195 -134.19238281 315.89697266 C-138.55799827 316.36189003 -142.90743595 316.82701823 -147.24438477 317.51367188 C-151.92618421 318.11993493 -156.57433635 318.32014808 -161.2890625 318.5 C-162.26934418 318.54060547 -163.24962585 318.58121094 -164.25961304 318.62304688 C-167.38128316 318.7520351 -170.50311152 318.87641821 -173.625 319 C-176.72544402 319.12399839 -179.82582938 319.24909988 -182.92611694 319.37695312 C-184.84840567 319.45611508 -186.77078533 319.53311406 -188.69326782 319.60742188 C-193.5964667 319.8081566 -198.47587673 320.10713562 -203.36669922 320.51196289 C-213.76565325 321.33803145 -224.18085819 321.33996186 -234.60742188 321.4050293 C-237.18828758 321.42655809 -239.7690813 321.46059908 -242.34960938 321.50756836 C-274.86002761 322.09107804 -274.86002761 322.09107804 -289 315 C-291.68096799 312.36533375 -291.94982742 311.34493651 -292.5 307.5625 C-292 304 -292 304 -290 301.25 C-287.2362857 299.17721428 -284.84110835 297.96941962 -281.58203125 296.87890625 C-278.1140495 295.69842835 -274.71607327 294.3521101 -271.3125 293 C-270.67070801 292.75064697 -270.02891602 292.50129395 -269.36767578 292.24438477 C-266.61256379 291.15314854 -264.07424116 290.04777778 -261.578125 288.44140625 C-258.01156284 286.44737377 -254.41660071 285.75339473 -250.4375 284.9375 C-249.63683105 284.76613525 -248.83616211 284.59477051 -248.01123047 284.41821289 C-242.67923466 283.29447468 -237.33252872 282.35825959 -231.94799805 281.52148438 C-229.20451987 281.03617842 -226.57352078 280.40488936 -223.8828125 279.6875 C-215.07942927 277.45387636 -206.16419386 275.78561904 -197.25 274.0625 C-195.87841736 273.79580002 -195.87841736 273.79580002 -194.47912598 273.52371216 C-183.36690992 271.36454057 -172.25284792 269.29479124 -161.07348633 267.51025391 C-151.66270192 265.99054108 -142.30220861 264.21549624 -132.9375 262.4375 C-131.76435242 262.21512161 -131.76435242 262.21512161 -130.56750488 261.98825073 C-129.80305054 261.84316071 -129.03859619 261.69807068 -128.25097656 261.54858398 C-127.49674408 261.40550308 -126.7425116 261.26242218 -125.96542358 261.11500549 C-124.47515319 260.82933682 -122.9857272 260.53922432 -121.4972229 260.24449158 C-117.88855947 259.53156762 -114.29109242 258.88181639 -110.64892578 258.36376953 C-109.96028946 258.25525162 -109.27165314 258.1467337 -108.56214905 258.03492737 C-106.69240462 257.74237104 -104.81806925 257.47959275 -102.94360352 257.21899414 C-99.66235148 256.21524992 -99.66235148 256.21524992 -98.09692383 252.61547852 C-96.59583413 247.66786282 -97.01442947 243.40623433 -97.3828125 238.3046875 C-96.87930436 233.95807645 -95.17610349 232.90071879 -92 230 C-90.10826107 226.93598264 -90.10826107 226.93598264 -88.625 223.625 C-88.10164062 222.54476562 -87.57828125 221.46453125 -87.0390625 220.3515625 C-85.79840329 216.34973694 -85.95599863 214.04263087 -87 210 C-88.54444053 207.17732434 -88.54444053 207.17732434 -90.5625 204.4375 C-96.52636108 195.41831538 -99.72410131 185.2307666 -103 175 C-103.2376709 174.2786084 -103.4753418 173.5572168 -103.72021484 172.81396484 C-106.86969597 162.94914119 -107.49725056 153.06323906 -107.9375 142.75 C-107.99542725 141.47503662 -108.05335449 140.20007324 -108.11303711 138.88647461 C-108.1634314 137.0786853 -108.1634314 137.0786853 -108.21484375 135.234375 C-108.24698975 134.15381836 -108.27913574 133.07326172 -108.31225586 131.95996094 C-107.95375165 128.56159892 -107.02295737 126.7275141 -105 124 C-102.53630468 122.76815234 -100.8105499 122.83267658 -98.0625 122.8125 C-97.18722656 122.79832031 -96.31195313 122.78414063 -95.41015625 122.76953125 C-93 123 -93 123 -90 125 C-89.90965722 127.94818591 -89.97003278 130.75136871 -90.125 133.6875 C-90.31621517 141.41547901 -89.35786746 147.40925361 -86.57421875 154.69140625 C-84.413213 160.36247686 -82.87118632 166.21951798 -81.25 172.0625 C-80.94441162 173.14611816 -80.63882324 174.22973633 -80.32397461 175.34619141 C-78.96530002 180.22401222 -77.77229741 184.9897436 -77 190 C-74.64884512 187.87976946 -73.44120128 186.12006749 -72.3515625 183.15625 C-72.07111084 182.41060791 -71.79065918 181.66496582 -71.50170898 180.89672852 C-71.06773804 179.7103479 -71.06773804 179.7103479 -70.625 178.5 C-68.72182225 173.42835873 -66.81603021 168.43502306 -64.4375 163.5625 C-62.12772667 158.67876357 -60.61362783 153.66011849 -59.0625 148.5 C-56.82448964 141.08577692 -53.99365878 134.65609797 -50 128 C-46.69702517 122.01060565 -44.83028582 115.63202846 -42.78125 109.13867188 C-41.2813321 104.50041223 -39.63107987 100.14346655 -37.48046875 95.765625 C-34.65086746 89.70181087 -33.36545301 83.52190816 -32.08828735 76.97897339 C-29.25680912 62.55639392 -25.34781003 48.67595024 -20.83544922 34.68505859 C-19.70990237 31.06765232 -18.78581983 27.42729335 -17.875 23.75 C-11.33630883 -1.59106089 -11.33630883 -1.59106089 0 0 Z M-3 22 C-4.74717305 23.74717305 -4.7638609 26.25648508 -5.25 28.625 C-5.51425781 29.88828125 -5.77851562 31.1515625 -6.05078125 32.453125 C-6.1998291 33.16919922 -6.34887695 33.88527344 -6.50244141 34.62304688 C-9.80275735 50.38942374 -13.22204647 66.10731638 -17.5625 81.625 C-18.96148624 86.68229784 -20.043114 91.78229839 -21.11328125 96.91796875 C-22.16579608 101.86416566 -23.37383943 106.77263754 -24.5625 111.6875 C-27.19068385 122.26453403 -27.19068385 122.26453403 -29 133 C-29.09667969 133.7940625 -29.19335938 134.588125 -29.29296875 135.40625 C-28.96062494 138.34860054 -27.87719288 139.87156746 -26.16308594 142.23242188 C-23.81437119 145.80183723 -22.31025253 149.83671231 -20.625 153.75 C-17.8803701 160.00478413 -15.04634376 165.92078263 -11.3515625 171.6796875 C-8.71481268 176.20636204 -6.8926849 181.12591764 -5 186 C-4.01 186 -3.02 186 -2 186 C-0.36938712 183.97086047 1.06645388 181.9749583 2.5 179.8125 C5.98451714 174.73916735 9.6114008 169.91640508 13.625 165.25 C14.08100586 164.70802979 14.53701172 164.16605957 15.00683594 163.60766602 C17.08733419 161.14892929 19.19724991 158.80828046 21.5078125 156.5625 C25.15665987 152.79922885 26.87830144 150.41509954 27.3359375 145.09375 C27.21841166 140.67756721 26.6448888 136.36520683 26 132 C25.86883789 130.9569873 25.73767578 129.91397461 25.60253906 128.83935547 C24.48452566 120.25229128 22.65374868 112.00542802 20.5 103.625 C18.2484718 94.62914732 16.43510894 85.97006672 15.51171875 76.74609375 C12.92494467 57.80932777 5.42148597 39.47364275 -2 22 C-2.33 22 -2.66 22 -3 22 Z M-35 152 C-39.39588057 157.98328189 -41.61210122 164.27599343 -43.81640625 171.27734375 C-44.79471523 174.35433535 -45.85330518 177.35859395 -47 180.375 C-48.46536876 184.31207512 -49.66911026 188.2748459 -50.8046875 192.31542969 C-53.21858466 200.88699969 -55.70964154 208.89385019 -61.36328125 215.94921875 C-65.10296455 221.11849548 -66.73348334 227.17898199 -68.6875 233.1875 C-69.45995592 235.51508204 -70.23460397 237.84193803 -71.01171875 240.16796875 C-71.34647217 241.19172607 -71.68122559 242.2154834 -72.02612305 243.27026367 C-73 246 -73 246 -74.12426758 248.17700195 C-75.21650484 250.11362272 -75.21650484 250.11362272 -75 253 C-71.55884942 252.57863462 -68.34850486 252.11386336 -65.046875 251.03515625 C-60.7098311 249.76499325 -56.34107929 249.49307346 -51.8527832 249.11352539 C-39.29202236 248.04550125 -27.49416917 245.89371712 -15.3293457 242.62719727 C-6.45241492 240.27056191 2.38898545 238.61027631 11.48120117 237.33032227 C23.65898453 236.2308128 23.65898453 236.2308128 34 231 C34.28213444 228.23789405 34.28213444 228.23789405 34.1875 225.125 C34.18105469 224.07570313 34.17460938 223.02640625 34.16796875 221.9453125 C34.12053896 219.18221389 34.12053896 219.18221389 33.51416016 217.32641602 C32.74783461 213.85902943 32.72655719 210.36846479 32.60546875 206.83203125 C32.53664522 205.19983424 32.46695582 203.56767356 32.39648438 201.93554688 C32.28959097 199.37964476 32.18788974 196.82401015 32.10131836 194.26733398 C31.75063873 181.11682691 31.75063873 181.11682691 27 169 C22.62238951 170.89683136 21.06432574 173.76816865 18.8125 177.8125 C15.79836602 183.0279607 12.68961841 188.11572323 9.25 193.0625 C8.20585938 194.56490234 8.20585938 194.56490234 7.140625 196.09765625 C6.43421875 197.05542969 5.7278125 198.01320313 5 199 C4.3978064 199.82649048 4.3978064 199.82649048 3.78344727 200.66967773 C1.93416915 203.07334636 0.57729678 204.79069341 -2.31640625 205.83984375 C-3.05761719 205.87207031 -3.79882812 205.90429688 -4.5625 205.9375 C-5.30628906 205.98777344 -6.05007813 206.03804687 -6.81640625 206.08984375 C-10.91517857 205.92120017 -10.91517857 205.92120017 -13 205 C-14.07421875 202.80078125 -14.07421875 202.80078125 -15 200 C-15.93292074 198.0602909 -16.87084583 196.12298442 -17.8125 194.1875 C-20.36616523 188.70481153 -22.25469492 183.20002813 -23.953125 177.40112305 C-26.58920088 168.65862777 -30.34107819 160.3528736 -34 152 C-34.33 152 -34.66 152 -35 152 Z M43 157 C43.29032661 158.47943027 43.58235679 159.95852623 43.875 161.4375 C44.03742188 162.26121094 44.19984375 163.08492187 44.3671875 163.93359375 C44.71116333 165.6003902 45.06739925 167.26562486 45.48597717 168.91526794 C46.90625366 174.67510318 47.32181233 180.12104372 47.37890625 186.0390625 C47.39590073 186.96415619 47.4128952 187.88924988 47.43040466 188.84237671 C47.48305995 191.76985019 47.52360912 194.69731403 47.5625 197.625 C47.60665164 200.5597571 47.6535088 203.49441429 47.70530701 206.42904663 C47.73688093 208.24653505 47.76388405 210.0641107 47.78553772 211.88174438 C47.86341208 216.68076987 48.20577015 221.26502973 49 226 C52.30473549 227.06588883 54.70934539 226.91668047 58.11328125 226.328125 C59.10626221 226.16006348 60.09924316 225.99200195 61.12231445 225.81884766 C62.17507568 225.63112793 63.22783691 225.4434082 64.3125 225.25 C65.93901489 224.96648682 65.93901489 224.96648682 67.59838867 224.67724609 C69.76038513 224.29739454 71.92162505 223.91320824 74.08203125 223.52441406 C76.46956567 223.09532906 78.85875939 222.68108935 81.25 222.2734375 C88.16785229 221.01426702 94.66387711 219.17019661 101.3125 216.9375 C108.37982997 214.57175933 115.02719155 213.32598776 122.4362793 212.6784668 C133.74835798 211.65145076 144.22718038 208.46723768 154.77416992 204.36132812 C160.10355816 202.29439235 165.48810153 200.47479736 170.9375 198.75 C172.09052612 198.38092529 172.09052612 198.38092529 173.2668457 198.00439453 C178.45793573 196.37962092 183.67375492 195.10007962 189 194 C189 193.34 189 192.68 189 192 C188.11441406 191.79955078 187.22882813 191.59910156 186.31640625 191.39257812 C165.29033145 186.56817699 147.03949538 182.31500813 130.671875 167.41796875 C128.51462981 165.46572493 126.36130172 163.69226623 124 162 C123.72961914 162.49177734 123.45923828 162.98355469 123.18066406 163.49023438 C118.11988224 172.62763927 112.92112862 181.52501169 106.625 189.875 C106.13805664 190.52146484 105.65111328 191.16792969 105.14941406 191.83398438 C100.89251585 197.35597314 96.73390553 202.58595839 90 205 C81.49318818 206.04369288 74.8822401 204.1526637 67.875 199.375 C60.00542363 193.01170973 57.03582816 185.10513226 54.26708984 175.64746094 C52.07385912 168.37675088 48.74117089 162.10326301 43 157 Z M-135.78125 276.03125 C-151.9613939 279.54091357 -168.23214366 282.30725853 -184.57080078 284.96948242 C-219.12155917 290.25650169 -219.12155917 290.25650169 -251.8203125 301.9296875 C-254.46808423 303.22984781 -257.17519378 304.16019275 -260 305 C-259.67 305.66 -259.34 306.32 -259 307 C-253.39706638 308.16946546 -247.81114223 308.16084838 -242.10546875 308.16796875 C-241.15924149 308.17129715 -240.21301422 308.17462555 -239.2381134 308.17805481 C-237.23695356 308.18310199 -235.23578535 308.18546382 -233.23461914 308.18530273 C-230.23503924 308.18746572 -227.23584194 308.20557975 -224.23632812 308.22460938 C-214.53143557 308.25203752 -205.07473179 307.94377584 -195.447052 306.7063446 C-188.20581192 305.81125609 -181.05375338 305.83738871 -173.76870728 305.96392822 C-161.42327847 306.1657776 -149.26335813 306.0400618 -137.01904297 304.28662109 C-134.17465734 303.88283527 -131.32346108 303.54153175 -128.47167969 303.19458008 C-126.47625495 302.94991517 -124.48221836 302.69400648 -122.48828125 302.4375 C-119.51517355 302.06461303 -116.54354705 301.73795199 -113.5625 301.4375 C-110.18905402 301.39426871 -110.18905402 301.39426871 -109 300 C-108.67327158 297.67131745 -108.3892579 295.33659617 -108.125 293 C-107.4880158 287.69996483 -106.56755888 282.80570471 -104.5859375 277.83203125 C-103.79691444 275.68559419 -103.79691444 275.68559419 -104 272 C-114.85833859 271.48293626 -125.22590247 273.7329082 -135.78125 276.03125 Z " fill="#000000" transform="translate(568,84)"/>
</svg>
